<svg width="553" height="80" viewBox="0 0 553 80" fill="none" xmlns="http://www.w3.org/2000/svg">
<path d="M16 64V56H40V64H16ZM8 56V16H16V56H8ZM40 56V40H32V32H48V56H40ZM16 16V8H48V16H16ZM64 8H56V0H16V8H8V16H0V64H8V72H16V80H56V72H64V8ZM72 64V32H80V64H72ZM80 32V24H96V32H80ZM112 24H104V16H80V24H72V32H64V72H72V80H96V40H112V24ZM120 56V48H128V56H120ZM128 64V56H152V48H128V40H152V32H160V64H128ZM128 32V24H152V32H128ZM176 24H168V16H128V24H120V32H128V40H120V48H112V64H120V72H128V80H176V24ZM200 32V64H192V32H184V24H192V16H200V24H216V32H200ZM200 16V8H216V16H200ZM232 40V8H224V0H200V8H192V16H184V24H176V40H184V72H192V80H216V48H224H232V40ZM248 32V64H240V32H232V24H240V16H248V24H264V32H248ZM248 16V8H264V16H248ZM280 40V8H272V0H248V8H240V16H232V24H224V40H232V72H240V80H264V48H272H280V40ZM288 64V24H296V64H288ZM288 16V8H296V16H288ZM312 8H304V0H288V8H280V72H288V80H312V8ZM336 64V56H344V64H336ZM336 32V56H328V32H320V24H328V8H336V24H344V32H336ZM360 56H352V40H360V24H352V8H344V0H328V8H320V24H312V40H320V64H328V72H336V80H360V56ZM377 64V8H409V16H385V32H409V40H385V56H409V64H377ZM425 56H417V48H425V32H417V24H425V8H417V0H377V8H369V72H377V80H425V56ZM457 16V64H449V16H433V8H473V16H457ZM489 8H481V0H433V8H425V24H433V32H441V72H449V80H473V32H489V8ZM529 64V40H505V64H497V8H505V32H529V8H537V64H529ZM553 8H545V0H529V8H513V0H497V8H489V72H497V80H521V72H529V80H553V8Z" fill="#272727"/>
</svg>
